<svg width="315" height="444" viewBox="0 0 315 444" fill="none" xmlns="http://www.w3.org/2000/svg">
<mask id="path-1-inside-1_2_683" fill="white">
<path fill-rule="evenodd" clip-rule="evenodd" d="M0 15C0 6.71573 6.71573 0 15 0H300C308.284 0 315 6.71573 315 15L315 307C303.848 307 294.808 315.954 294.808 327C294.808 338.046 303.848 347 315 347L315 429C315 437.284 308.284 444 300 444H15C6.71573 444 0 437.284 0 429V347C11.1519 347 20.1923 338.046 20.1923 327C20.1923 315.954 11.1519 307 0 307V15Z"/>
</mask>
<path fill-rule="evenodd" clip-rule="evenodd" d="M0 15C0 6.71573 6.71573 0 15 0H300C308.284 0 315 6.71573 315 15L315 307C303.848 307 294.808 315.954 294.808 327C294.808 338.046 303.848 347 315 347L315 429C315 437.284 308.284 444 300 444H15C6.71573 444 0 437.284 0 429V347C11.1519 347 20.1923 338.046 20.1923 327C20.1923 315.954 11.1519 307 0 307V15Z" fill="white"/>
<path d="M315 15H316V15H315ZM315 307V308H316V307H315ZM315 347H316V346H315V347ZM315 429H316V429H315ZM0 347V346H-1V347H0ZM0 307H-1V308H0V307ZM15 -1C6.16344 -1 -1 6.16345 -1 15H1C1 7.26802 7.26801 1 15 1V-1ZM300 -1H15V1H300V-1ZM316 15C316 6.16344 308.837 -1 300 -1V1C307.732 1 314 7.26801 314 15H316ZM316 307L316 15H314L314 307H316ZM295.808 327C295.808 316.516 304.391 308 315 308V306C303.305 306 293.808 315.393 293.808 327H295.808ZM315 346C304.391 346 295.808 337.484 295.808 327H293.808C293.808 338.607 303.305 348 315 348V346ZM316 429L316 347H314L314 429H316ZM300 445C308.837 445 316 437.837 316 429H314C314 436.732 307.732 443 300 443V445ZM15 445H300V443H15V445ZM-1 429C-1 437.837 6.16344 445 15 445V443C7.26801 443 1 436.732 1 429H-1ZM-1 347V429H1V347H-1ZM19.1923 327C19.1923 337.484 10.6087 346 0 346V348C11.6951 348 21.1923 338.607 21.1923 327H19.1923ZM0 308C10.6087 308 19.1923 316.516 19.1923 327H21.1923C21.1923 315.393 11.6951 306 0 306V308ZM-1 15V307H1V15H-1Z" fill="#D8D8D8" mask="url(#path-1-inside-1_2_683)"/>
<path d="M47 367.333H52.1667V417.333H47V367.333ZM57.3333 367.333H59.9167V417.333H57.3333V367.333ZM62.5 367.333H67.6667V417.333H62.5V367.333ZM70.25 367.333H75.4167V417.333H70.25V367.333ZM78 367.333H83.1667V417.333H78V367.333ZM85.75 367.333H88.3333V417.333H85.75V367.333ZM90.9167 367.333H98.6667V417.333H90.9167V367.333Z" fill="black"/>
<path d="M157.833 367.333H163V417.333H157.833V367.333ZM168.167 367.333H170.75V417.333H168.167V367.333ZM173.333 367.333H178.5V417.333H173.333V367.333ZM181.083 367.333H186.25V417.333H181.083V367.333ZM188.833 367.333H194V417.333H188.833V367.333ZM196.583 367.333H199.167V417.333H196.583V367.333ZM201.75 367.333H209.5V417.333H201.75V367.333Z" fill="black"/>
<path d="M102.833 367H108V417H102.833V367ZM113.167 367H115.75V417H113.167V367ZM118.333 367H123.5V417H118.333V367ZM126.083 367H131.25V417H126.083V367ZM133.833 367H139V417H133.833V367ZM141.583 367H144.167V417H141.583V367ZM146.75 367H154.5V417H146.75V367Z" fill="black"/>
<path d="M213.667 367H218.834V417H213.667V367ZM224 367H226.584V417H224V367ZM229.167 367H234.334V417H229.167V367ZM236.917 367H242.084V417H236.917V367ZM244.667 367H249.834V417H244.667V367ZM252.417 367H255V417H252.417V367ZM257.584 367H265V417H257.584V367Z" fill="black"/>
<path d="M37 34.832V36.64H32.344V39.504H35.912V41.28H32.344V46H30.104V34.832H37ZM39.7244 36.08C39.3297 36.08 38.999 35.9573 38.7324 35.712C38.4764 35.456 38.3484 35.1413 38.3484 34.768C38.3484 34.3947 38.4764 34.0853 38.7324 33.84C38.999 33.584 39.3297 33.456 39.7244 33.456C40.119 33.456 40.4444 33.584 40.7004 33.84C40.967 34.0853 41.1004 34.3947 41.1004 34.768C41.1004 35.1413 40.967 35.456 40.7004 35.712C40.4444 35.9573 40.119 36.08 39.7244 36.08ZM40.8284 37.136V46H38.5884V37.136H40.8284ZM45.2815 34.16V46H43.0415V34.16H45.2815ZM58.5026 37.008C59.5906 37.008 60.4653 37.344 61.1266 38.016C61.7986 38.6773 62.1346 39.6053 62.1346 40.8V46H59.8946V41.104C59.8946 40.4107 59.7186 39.8827 59.3666 39.52C59.0146 39.1467 58.5346 38.96 57.9266 38.96C57.3186 38.96 56.8333 39.1467 56.4706 39.52C56.1186 39.8827 55.9426 40.4107 55.9426 41.104V46H53.7026V41.104C53.7026 40.4107 53.5266 39.8827 53.1746 39.52C52.8226 39.1467 52.3426 38.96 51.7346 38.96C51.116 38.96 50.6253 39.1467 50.2626 39.52C49.9106 39.8827 49.7346 40.4107 49.7346 41.104V46H47.4946V37.136H49.7346V38.208C50.0226 37.8347 50.3906 37.5413 50.8386 37.328C51.2973 37.1147 51.7986 37.008 52.3426 37.008C53.036 37.008 53.6546 37.1573 54.1986 37.456C54.7426 37.744 55.164 38.16 55.4626 38.704C55.7506 38.192 56.1666 37.7813 56.7106 37.472C57.2653 37.1627 57.8626 37.008 58.5026 37.008ZM65.2523 46.112C64.8469 46.112 64.5109 45.9893 64.2443 45.744C63.9883 45.488 63.8603 45.1733 63.8603 44.8C63.8603 44.4267 63.9883 44.1173 64.2443 43.872C64.5109 43.616 64.8469 43.488 65.2523 43.488C65.6469 43.488 65.9723 43.616 66.2283 43.872C66.4843 44.1173 66.6123 44.4267 66.6123 44.8C66.6123 45.1733 66.4843 45.488 66.2283 45.744C65.9723 45.9893 65.6469 46.112 65.2523 46.112ZM65.2523 39.488C64.8469 39.488 64.5109 39.3653 64.2443 39.12C63.9883 38.864 63.8603 38.5493 63.8603 38.176C63.8603 37.8027 63.9883 37.4933 64.2443 37.248C64.5109 36.992 64.8469 36.864 65.2523 36.864C65.6469 36.864 65.9723 36.992 66.2283 37.248C66.4843 37.4933 66.6123 37.8027 66.6123 38.176C66.6123 38.5493 66.4843 38.864 66.2283 39.12C65.9723 39.3653 65.6469 39.488 65.2523 39.488ZM76.1319 46.112C75.3532 46.112 74.6492 45.9787 74.0199 45.712C73.4012 45.4453 72.9105 45.0613 72.5479 44.56C72.1852 44.0587 71.9985 43.4667 71.9879 42.784H74.3879C74.4199 43.2427 74.5799 43.6053 74.8679 43.872C75.1665 44.1387 75.5719 44.272 76.0839 44.272C76.6065 44.272 77.0172 44.1493 77.3159 43.904C77.6145 43.648 77.7639 43.3173 77.7639 42.912C77.7639 42.5813 77.6625 42.3093 77.4599 42.096C77.2572 41.8827 77.0012 41.7173 76.6919 41.6C76.3932 41.472 75.9772 41.3333 75.4439 41.184C74.7185 40.9707 74.1265 40.7627 73.6679 40.56C73.2199 40.3467 72.8305 40.032 72.4999 39.616C72.1799 39.1893 72.0199 38.624 72.0199 37.92C72.0199 37.2587 72.1852 36.6827 72.5159 36.192C72.8465 35.7013 73.3105 35.328 73.9079 35.072C74.5052 34.8053 75.1879 34.672 75.9559 34.672C77.1079 34.672 78.0412 34.9547 78.7559 35.52C79.4812 36.0747 79.8812 36.8533 79.9559 37.856H77.4919C77.4705 37.472 77.3052 37.1573 76.9959 36.912C76.6972 36.656 76.2972 36.528 75.7959 36.528C75.3585 36.528 75.0065 36.64 74.7399 36.864C74.4839 37.088 74.3559 37.4133 74.3559 37.84C74.3559 38.1387 74.4519 38.3893 74.6439 38.592C74.8465 38.784 75.0919 38.944 75.3799 39.072C75.6785 39.1893 76.0945 39.328 76.6279 39.488C77.3532 39.7013 77.9452 39.9147 78.4039 40.128C78.8625 40.3413 79.2572 40.6613 79.5879 41.088C79.9185 41.5147 80.0839 42.0747 80.0839 42.768C80.0839 43.3653 79.9292 43.92 79.6199 44.432C79.3105 44.944 78.8572 45.3547 78.2599 45.664C77.6625 45.9627 76.9532 46.112 76.1319 46.112ZM87.0179 37.008C87.6899 37.008 88.2872 37.1573 88.8099 37.456C89.3325 37.744 89.7379 38.176 90.0259 38.752C90.3245 39.3173 90.4739 40 90.4739 40.8V46H88.2339V41.104C88.2339 40.4 88.0579 39.8613 87.7059 39.488C87.3539 39.104 86.8739 38.912 86.2659 38.912C85.6472 38.912 85.1565 39.104 84.7939 39.488C84.4419 39.8613 84.2659 40.4 84.2659 41.104V46H82.0259V34.16H84.2659V38.24C84.5539 37.856 84.9379 37.5573 85.4179 37.344C85.8979 37.12 86.4312 37.008 87.0179 37.008ZM92.028 41.536C92.028 40.64 92.204 39.8453 92.556 39.152C92.9187 38.4587 93.404 37.9253 94.012 37.552C94.6307 37.1787 95.3187 36.992 96.076 36.992C96.7373 36.992 97.3133 37.1253 97.804 37.392C98.3053 37.6587 98.7053 37.9947 99.004 38.4V37.136H101.26V46H99.004V44.704C98.716 45.12 98.316 45.4667 97.804 45.744C97.3027 46.0107 96.7213 46.144 96.06 46.144C95.3133 46.144 94.6307 45.952 94.012 45.568C93.404 45.184 92.9187 44.6453 92.556 43.952C92.204 43.248 92.028 42.4427 92.028 41.536ZM99.004 41.568C99.004 41.024 98.8973 40.56 98.684 40.176C98.4707 39.7813 98.1827 39.4827 97.82 39.28C97.4573 39.0667 97.068 38.96 96.652 38.96C96.236 38.96 95.852 39.0613 95.5 39.264C95.148 39.4667 94.86 39.7653 94.636 40.16C94.4227 40.544 94.316 41.0027 94.316 41.536C94.316 42.0693 94.4227 42.5387 94.636 42.944C94.86 43.3387 95.148 43.6427 95.5 43.856C95.8627 44.0693 96.2467 44.176 96.652 44.176C97.068 44.176 97.4573 44.0747 97.82 43.872C98.1827 43.6587 98.4707 43.36 98.684 42.976C98.8973 42.5813 99.004 42.112 99.004 41.568ZM108.36 37.008C109.416 37.008 110.269 37.344 110.92 38.016C111.57 38.6773 111.896 39.6053 111.896 40.8V46H109.656V41.104C109.656 40.4 109.48 39.8613 109.128 39.488C108.776 39.104 108.296 38.912 107.688 38.912C107.069 38.912 106.578 39.104 106.216 39.488C105.864 39.8613 105.688 40.4 105.688 41.104V46H103.448V37.136H105.688V38.24C105.986 37.856 106.365 37.5573 106.824 37.344C107.293 37.12 107.805 37.008 108.36 37.008ZM117.498 36.992C118.159 36.992 118.741 37.1253 119.242 37.392C119.743 37.648 120.138 37.984 120.426 38.4V37.136H122.682V46.064C122.682 46.8853 122.517 47.616 122.186 48.256C121.855 48.9067 121.359 49.4187 120.698 49.792C120.037 50.176 119.237 50.368 118.298 50.368C117.039 50.368 116.005 50.0747 115.194 49.488C114.394 48.9013 113.941 48.1013 113.834 47.088H116.058C116.175 47.4933 116.426 47.8133 116.81 48.048C117.205 48.2933 117.679 48.416 118.234 48.416C118.885 48.416 119.413 48.2187 119.818 47.824C120.223 47.44 120.426 46.8533 120.426 46.064V44.688C120.138 45.104 119.738 45.4507 119.226 45.728C118.725 46.0053 118.149 46.144 117.498 46.144C116.751 46.144 116.069 45.952 115.45 45.568C114.831 45.184 114.341 44.6453 113.978 43.952C113.626 43.248 113.45 42.4427 113.45 41.536C113.45 40.64 113.626 39.8453 113.978 39.152C114.341 38.4587 114.826 37.9253 115.434 37.552C116.053 37.1787 116.741 36.992 117.498 36.992ZM120.426 41.568C120.426 41.024 120.319 40.56 120.106 40.176C119.893 39.7813 119.605 39.4827 119.242 39.28C118.879 39.0667 118.49 38.96 118.074 38.96C117.658 38.96 117.274 39.0613 116.922 39.264C116.57 39.4667 116.282 39.7653 116.058 40.16C115.845 40.544 115.738 41.0027 115.738 41.536C115.738 42.0693 115.845 42.5387 116.058 42.944C116.282 43.3387 116.57 43.6427 116.922 43.856C117.285 44.0693 117.669 44.176 118.074 44.176C118.49 44.176 118.879 44.0747 119.242 43.872C119.605 43.6587 119.893 43.36 120.106 42.976C120.319 42.5813 120.426 42.112 120.426 41.568ZM131.686 39.344V41.232H124.902V39.344H131.686ZM133.654 40.4C133.654 39.3013 133.899 38.32 134.39 37.456C134.891 36.5813 135.568 35.904 136.422 35.424C137.286 34.9333 138.251 34.688 139.318 34.688C140.566 34.688 141.659 35.008 142.598 35.648C143.536 36.288 144.192 37.1733 144.566 38.304H141.99C141.734 37.7707 141.371 37.3707 140.902 37.104C140.443 36.8373 139.91 36.704 139.302 36.704C138.651 36.704 138.07 36.8587 137.558 37.168C137.056 37.4667 136.662 37.8933 136.374 38.448C136.096 39.0027 135.958 39.6533 135.958 40.4C135.958 41.136 136.096 41.7867 136.374 42.352C136.662 42.9067 137.056 43.3387 137.558 43.648C138.07 43.9467 138.651 44.096 139.302 44.096C139.91 44.096 140.443 43.9627 140.902 43.696C141.371 43.4187 141.734 43.0133 141.99 42.48H144.566C144.192 43.6213 143.536 44.512 142.598 45.152C141.67 45.7813 140.576 46.096 139.318 46.096C138.251 46.096 137.286 45.856 136.422 45.376C135.568 44.8853 134.891 44.208 134.39 43.344C133.899 42.48 133.654 41.4987 133.654 40.4ZM151.471 37.008C152.143 37.008 152.74 37.1573 153.263 37.456C153.786 37.744 154.191 38.176 154.479 38.752C154.778 39.3173 154.927 40 154.927 40.8V46H152.687V41.104C152.687 40.4 152.511 39.8613 152.159 39.488C151.807 39.104 151.327 38.912 150.719 38.912C150.1 38.912 149.61 39.104 149.247 39.488C148.895 39.8613 148.719 40.4 148.719 41.104V46H146.479V34.16H148.719V38.24C149.007 37.856 149.391 37.5573 149.871 37.344C150.351 37.12 150.884 37.008 151.471 37.008ZM158.193 36.08C157.798 36.08 157.468 35.9573 157.201 35.712C156.945 35.456 156.817 35.1413 156.817 34.768C156.817 34.3947 156.945 34.0853 157.201 33.84C157.468 33.584 157.798 33.456 158.193 33.456C158.588 33.456 158.913 33.584 159.169 33.84C159.436 34.0853 159.569 34.3947 159.569 34.768C159.569 35.1413 159.436 35.456 159.169 35.712C158.913 35.9573 158.588 36.08 158.193 36.08ZM159.297 37.136V46H157.057V37.136H159.297Z" fill="black"/>
<path d="M203.344 41.376C203.344 41.696 203.323 41.984 203.28 42.24H196.8C196.853 42.88 197.077 43.3813 197.472 43.744C197.867 44.1067 198.352 44.288 198.928 44.288C199.76 44.288 200.352 43.9307 200.704 43.216H203.12C202.864 44.0693 202.373 44.7733 201.648 45.328C200.923 45.872 200.032 46.144 198.976 46.144C198.123 46.144 197.355 45.9573 196.672 45.584C196 45.2 195.472 44.6613 195.088 43.968C194.715 43.2747 194.528 42.4747 194.528 41.568C194.528 40.6507 194.715 39.8453 195.088 39.152C195.461 38.4587 195.984 37.9253 196.656 37.552C197.328 37.1787 198.101 36.992 198.976 36.992C199.819 36.992 200.571 37.1733 201.232 37.536C201.904 37.8987 202.421 38.416 202.784 39.088C203.157 39.7493 203.344 40.512 203.344 41.376ZM201.024 40.736C201.013 40.16 200.805 39.7013 200.4 39.36C199.995 39.008 199.499 38.832 198.912 38.832C198.357 38.832 197.888 39.0027 197.504 39.344C197.131 39.6747 196.901 40.1387 196.816 40.736H201.024ZM211.795 39.344V41.232H205.011V39.344H211.795ZM216.915 38.976V43.264C216.915 43.5627 216.984 43.7813 217.123 43.92C217.272 44.048 217.518 44.112 217.859 44.112H218.899V46H217.491C215.603 46 214.659 45.0827 214.659 43.248V38.976H213.603V37.136H214.659V34.944H216.915V37.136H218.899V38.976H216.915ZM221.646 36.08C221.252 36.08 220.921 35.9573 220.654 35.712C220.398 35.456 220.27 35.1413 220.27 34.768C220.27 34.3947 220.398 34.0853 220.654 33.84C220.921 33.584 221.252 33.456 221.646 33.456C222.041 33.456 222.366 33.584 222.622 33.84C222.889 34.0853 223.022 34.3947 223.022 34.768C223.022 35.1413 222.889 35.456 222.622 35.712C222.366 35.9573 222.041 36.08 221.646 36.08ZM222.75 37.136V46H220.51V37.136H222.75ZM224.387 41.568C224.387 40.6507 224.574 39.8507 224.947 39.168C225.321 38.4747 225.838 37.9413 226.499 37.568C227.161 37.184 227.918 36.992 228.771 36.992C229.87 36.992 230.777 37.2693 231.491 37.824C232.217 38.368 232.702 39.136 232.947 40.128H230.531C230.403 39.744 230.185 39.4453 229.875 39.232C229.577 39.008 229.203 38.896 228.755 38.896C228.115 38.896 227.609 39.1307 227.235 39.6C226.862 40.0587 226.675 40.7147 226.675 41.568C226.675 42.4107 226.862 43.0667 227.235 43.536C227.609 43.9947 228.115 44.224 228.755 44.224C229.662 44.224 230.254 43.8187 230.531 43.008H232.947C232.702 43.968 232.217 44.7307 231.491 45.296C230.766 45.8613 229.859 46.144 228.771 46.144C227.918 46.144 227.161 45.9573 226.499 45.584C225.838 45.2 225.321 44.6667 224.947 43.984C224.574 43.2907 224.387 42.4853 224.387 41.568ZM239.836 46L236.828 42.224V46H234.588V34.16H236.828V40.896L239.804 37.136H242.716L238.812 41.584L242.748 46H239.836ZM252.172 41.376C252.172 41.696 252.151 41.984 252.108 42.24H245.628C245.681 42.88 245.905 43.3813 246.3 43.744C246.695 44.1067 247.18 44.288 247.756 44.288C248.588 44.288 249.18 43.9307 249.532 43.216H251.948C251.692 44.0693 251.201 44.7733 250.476 45.328C249.751 45.872 248.86 46.144 247.804 46.144C246.951 46.144 246.183 45.9573 245.5 45.584C244.828 45.2 244.3 44.6613 243.916 43.968C243.543 43.2747 243.356 42.4747 243.356 41.568C243.356 40.6507 243.543 39.8453 243.916 39.152C244.289 38.4587 244.812 37.9253 245.484 37.552C246.156 37.1787 246.929 36.992 247.804 36.992C248.647 36.992 249.399 37.1733 250.06 37.536C250.732 37.8987 251.249 38.416 251.612 39.088C251.985 39.7493 252.172 40.512 252.172 41.376ZM249.852 40.736C249.841 40.16 249.633 39.7013 249.228 39.36C248.823 39.008 248.327 38.832 247.74 38.832C247.185 38.832 246.716 39.0027 246.332 39.344C245.959 39.6747 245.729 40.1387 245.644 40.736H249.852ZM256.415 38.976V43.264C256.415 43.5627 256.484 43.7813 256.623 43.92C256.772 44.048 257.018 44.112 257.359 44.112H258.399V46H256.991C255.103 46 254.159 45.0827 254.159 43.248V38.976H253.103V37.136H254.159V34.944H256.415V37.136H258.399V38.976H256.415Z" fill="#F14763"/>
<path d="M30.0208 116.764C30.0208 115.149 30.3101 113.885 30.8888 112.97C31.4768 112.055 32.4475 111.598 33.8008 111.598C35.1541 111.598 36.1201 112.055 36.6988 112.97C37.2868 113.885 37.5808 115.149 37.5808 116.764C37.5808 118.388 37.2868 119.662 36.6988 120.586C36.1201 121.51 35.1541 121.972 33.8008 121.972C32.4475 121.972 31.4768 121.51 30.8888 120.586C30.3101 119.662 30.0208 118.388 30.0208 116.764ZM35.6488 116.764C35.6488 116.073 35.6021 115.495 35.5088 115.028C35.4248 114.552 35.2475 114.165 34.9768 113.866C34.7155 113.567 34.3235 113.418 33.8008 113.418C33.2781 113.418 32.8815 113.567 32.6108 113.866C32.3495 114.165 32.1721 114.552 32.0788 115.028C31.9948 115.495 31.9528 116.073 31.9528 116.764C31.9528 117.473 31.9948 118.071 32.0788 118.556C32.1628 119.032 32.3401 119.419 32.6108 119.718C32.8815 120.007 33.2781 120.152 33.8008 120.152C34.3235 120.152 34.7201 120.007 34.9908 119.718C35.2615 119.419 35.4388 119.032 35.5228 118.556C35.6068 118.071 35.6488 117.473 35.6488 116.764ZM44.3636 114.342C44.2703 113.95 44.1069 113.656 43.8736 113.46C43.6496 113.264 43.3229 113.166 42.8936 113.166C42.2496 113.166 41.7736 113.427 41.4656 113.95C41.1669 114.463 41.0129 115.303 41.0036 116.47C41.2276 116.097 41.5543 115.807 41.9836 115.602C42.4129 115.387 42.8796 115.28 43.3836 115.28C43.9903 115.28 44.5269 115.411 44.9936 115.672C45.4603 115.933 45.8243 116.316 46.0856 116.82C46.3469 117.315 46.4776 117.912 46.4776 118.612C46.4776 119.275 46.3423 119.867 46.0716 120.39C45.8103 120.903 45.4229 121.305 44.9096 121.594C44.3963 121.883 43.7849 122.028 43.0756 122.028C42.1049 122.028 41.3396 121.813 40.7796 121.384C40.2289 120.955 39.8416 120.357 39.6176 119.592C39.4029 118.817 39.2956 117.865 39.2956 116.736C39.2956 115.028 39.5896 113.74 40.1776 112.872C40.7656 111.995 41.6943 111.556 42.9636 111.556C43.9436 111.556 44.7043 111.822 45.2456 112.354C45.7869 112.886 46.0996 113.549 46.1836 114.342H44.3636ZM42.9356 116.89C42.4409 116.89 42.0256 117.035 41.6896 117.324C41.3536 117.613 41.1856 118.033 41.1856 118.584C41.1856 119.135 41.3396 119.569 41.6476 119.886C41.9649 120.203 42.4083 120.362 42.9776 120.362C43.4816 120.362 43.8783 120.208 44.1676 119.9C44.4663 119.592 44.6156 119.177 44.6156 118.654C44.6156 118.113 44.4709 117.683 44.1816 117.366C43.9016 117.049 43.4863 116.89 42.9356 116.89ZM53.5007 108.742L49.7207 124.534H47.8027L51.5827 108.742H53.5007ZM54.8353 116.764C54.8353 115.149 55.1246 113.885 55.7033 112.97C56.2913 112.055 57.2619 111.598 58.6153 111.598C59.9686 111.598 60.9346 112.055 61.5133 112.97C62.1013 113.885 62.3953 115.149 62.3953 116.764C62.3953 118.388 62.1013 119.662 61.5133 120.586C60.9346 121.51 59.9686 121.972 58.6153 121.972C57.2619 121.972 56.2913 121.51 55.7033 120.586C55.1246 119.662 54.8353 118.388 54.8353 116.764ZM60.4633 116.764C60.4633 116.073 60.4166 115.495 60.3233 115.028C60.2393 114.552 60.0619 114.165 59.7913 113.866C59.5299 113.567 59.1379 113.418 58.6153 113.418C58.0926 113.418 57.6959 113.567 57.4253 113.866C57.1639 114.165 56.9866 114.552 56.8933 115.028C56.8093 115.495 56.7673 116.073 56.7673 116.764C56.7673 117.473 56.8093 118.071 56.8933 118.556C56.9773 119.032 57.1546 119.419 57.4253 119.718C57.6959 120.007 58.0926 120.152 58.6153 120.152C59.1379 120.152 59.5346 120.007 59.8053 119.718C60.0759 119.419 60.2533 119.032 60.3373 118.556C60.4213 118.071 60.4633 117.473 60.4633 116.764ZM66.154 119.13C66.2287 119.541 66.3967 119.858 66.658 120.082C66.9287 120.297 67.288 120.404 67.736 120.404C68.3147 120.404 68.7347 120.166 68.996 119.69C69.2574 119.205 69.388 118.393 69.388 117.254C69.1734 117.553 68.87 117.786 68.478 117.954C68.0954 118.122 67.68 118.206 67.232 118.206C66.6347 118.206 66.0934 118.085 65.608 117.842C65.132 117.59 64.754 117.221 64.474 116.736C64.194 116.241 64.054 115.644 64.054 114.944C64.054 113.908 64.362 113.087 64.978 112.48C65.594 111.864 66.434 111.556 67.498 111.556C68.8234 111.556 69.7567 111.981 70.298 112.83C70.8487 113.679 71.124 114.958 71.124 116.666C71.124 117.879 71.0167 118.873 70.802 119.648C70.5967 120.423 70.2374 121.011 69.724 121.412C69.22 121.813 68.5294 122.014 67.652 122.014C66.9614 122.014 66.3734 121.883 65.888 121.622C65.4027 121.351 65.0294 121.001 64.768 120.572C64.516 120.133 64.3714 119.653 64.334 119.13H66.154ZM67.638 116.61C68.1234 116.61 68.506 116.461 68.786 116.162C69.066 115.863 69.206 115.462 69.206 114.958C69.206 114.407 69.0567 113.983 68.758 113.684C68.4687 113.376 68.072 113.222 67.568 113.222C67.064 113.222 66.6627 113.381 66.364 113.698C66.0747 114.006 65.93 114.417 65.93 114.93C65.93 115.425 66.07 115.831 66.35 116.148C66.6394 116.456 67.0687 116.61 67.638 116.61ZM78.1237 108.742L74.3437 124.534H72.4257L76.2057 108.742H78.1237ZM80.0743 119.788C80.9703 119.041 81.6843 118.421 82.2163 117.926C82.7483 117.422 83.1916 116.899 83.5463 116.358C83.901 115.817 84.0783 115.285 84.0783 114.762C84.0783 114.286 83.9663 113.913 83.7423 113.642C83.5183 113.371 83.173 113.236 82.7063 113.236C82.2396 113.236 81.8803 113.395 81.6283 113.712C81.3763 114.02 81.2456 114.445 81.2363 114.986H79.3323C79.3696 113.866 79.701 113.017 80.3263 112.438C80.961 111.859 81.7636 111.57 82.7343 111.57C83.7983 111.57 84.615 111.855 85.1843 112.424C85.7536 112.984 86.0383 113.726 86.0383 114.65C86.0383 115.378 85.8423 116.073 85.4503 116.736C85.0583 117.399 84.6103 117.977 84.1063 118.472C83.6023 118.957 82.9443 119.545 82.1323 120.236H86.2623V121.86H79.3463V120.404L80.0743 119.788ZM87.4974 116.764C87.4974 115.149 87.7867 113.885 88.3654 112.97C88.9534 112.055 89.924 111.598 91.2774 111.598C92.6307 111.598 93.5967 112.055 94.1754 112.97C94.7634 113.885 95.0574 115.149 95.0574 116.764C95.0574 118.388 94.7634 119.662 94.1754 120.586C93.5967 121.51 92.6307 121.972 91.2774 121.972C89.924 121.972 88.9534 121.51 88.3654 120.586C87.7867 119.662 87.4974 118.388 87.4974 116.764ZM93.1254 116.764C93.1254 116.073 93.0787 115.495 92.9854 115.028C92.9014 114.552 92.724 114.165 92.4534 113.866C92.192 113.567 91.8 113.418 91.2774 113.418C90.7547 113.418 90.358 113.567 90.0874 113.866C89.826 114.165 89.6487 114.552 89.5554 115.028C89.4714 115.495 89.4294 116.073 89.4294 116.764C89.4294 117.473 89.4714 118.071 89.5554 118.556C89.6394 119.032 89.8167 119.419 90.0874 119.718C90.358 120.007 90.7547 120.152 91.2774 120.152C91.8 120.152 92.1967 120.007 92.4674 119.718C92.738 119.419 92.9154 119.032 92.9994 118.556C93.0834 118.071 93.1254 117.473 93.1254 116.764ZM97.1642 119.788C98.0602 119.041 98.7742 118.421 99.3062 117.926C99.8382 117.422 100.281 116.899 100.636 116.358C100.991 115.817 101.168 115.285 101.168 114.762C101.168 114.286 101.056 113.913 100.832 113.642C100.608 113.371 100.263 113.236 99.7962 113.236C99.3295 113.236 98.9702 113.395 98.7182 113.712C98.4662 114.02 98.3355 114.445 98.3262 114.986H96.4222C96.4595 113.866 96.7908 113.017 97.4162 112.438C98.0508 111.859 98.8535 111.57 99.8242 111.57C100.888 111.57 101.705 111.855 102.274 112.424C102.843 112.984 103.128 113.726 103.128 114.65C103.128 115.378 102.932 116.073 102.54 116.736C102.148 117.399 101.7 117.977 101.196 118.472C100.692 118.957 100.034 119.545 99.2222 120.236H103.352V121.86H96.4362V120.404L97.1642 119.788ZM104.349 113.6V111.794H107.723V122H105.707V113.6H104.349Z" fill="black"/>
<path d="M33.6608 87.228C34.6875 87.228 35.5881 87.4287 36.3628 87.83C37.1468 88.2313 37.7488 88.8053 38.1688 89.552C38.5981 90.2893 38.8128 91.148 38.8128 92.128C38.8128 93.108 38.5981 93.9667 38.1688 94.704C37.7488 95.432 37.1468 95.9967 36.3628 96.398C35.5881 96.7993 34.6875 97 33.6608 97H30.2448V87.228H33.6608ZM33.5908 95.334C34.6175 95.334 35.4108 95.054 35.9708 94.494C36.5308 93.934 36.8108 93.1453 36.8108 92.128C36.8108 91.1107 36.5308 90.3173 35.9708 89.748C35.4108 89.1693 34.6175 88.88 33.5908 88.88H32.2048V95.334H33.5908ZM39.776 93.094C39.776 92.31 39.93 91.6147 40.238 91.008C40.5553 90.4013 40.98 89.9347 41.512 89.608C42.0533 89.2813 42.6553 89.118 43.318 89.118C43.8966 89.118 44.4006 89.2347 44.83 89.468C45.2686 89.7013 45.6186 89.9953 45.88 90.35V89.244H47.854V97H45.88V95.866C45.628 96.23 45.278 96.5333 44.83 96.776C44.3913 97.0093 43.8826 97.126 43.304 97.126C42.6506 97.126 42.0533 96.958 41.512 96.622C40.98 96.286 40.5553 95.8147 40.238 95.208C39.93 94.592 39.776 93.8873 39.776 93.094ZM45.88 93.122C45.88 92.646 45.7866 92.24 45.6 91.904C45.4133 91.5587 45.1613 91.2973 44.844 91.12C44.5266 90.9333 44.186 90.84 43.822 90.84C43.458 90.84 43.122 90.9287 42.814 91.106C42.506 91.2833 42.254 91.5447 42.058 91.89C41.8713 92.226 41.778 92.6273 41.778 93.094C41.778 93.5607 41.8713 93.9713 42.058 94.326C42.254 94.6713 42.506 94.9373 42.814 95.124C43.1313 95.3107 43.4673 95.404 43.822 95.404C44.186 95.404 44.5266 95.3153 44.844 95.138C45.1613 94.9513 45.4133 94.69 45.6 94.354C45.7866 94.0087 45.88 93.598 45.88 93.122ZM52.0502 90.854V94.606C52.0502 94.8673 52.1109 95.0587 52.2322 95.18C52.3629 95.292 52.5776 95.348 52.8762 95.348H53.7862V97H52.5542C50.9022 97 50.0762 96.1973 50.0762 94.592V90.854H49.1522V89.244H50.0762V87.326H52.0502V89.244H53.7862V90.854H52.0502ZM62.406 92.954C62.406 93.234 62.3873 93.486 62.35 93.71H56.68C56.7266 94.27 56.9226 94.7087 57.268 95.026C57.6133 95.3433 58.038 95.502 58.542 95.502C59.27 95.502 59.788 95.1893 60.096 94.564H62.21C61.986 95.3107 61.5566 95.9267 60.922 96.412C60.2873 96.888 59.508 97.126 58.584 97.126C57.8373 97.126 57.1653 96.9627 56.568 96.636C55.98 96.3 55.518 95.8287 55.182 95.222C54.8553 94.6153 54.692 93.9153 54.692 93.122C54.692 92.3193 54.8553 91.6147 55.182 91.008C55.5086 90.4013 55.966 89.9347 56.554 89.608C57.142 89.2813 57.8186 89.118 58.584 89.118C59.3213 89.118 59.9793 89.2767 60.558 89.594C61.146 89.9113 61.5986 90.364 61.916 90.952C62.2426 91.5307 62.406 92.198 62.406 92.954ZM60.376 92.394C60.3666 91.89 60.1846 91.4887 59.83 91.19C59.4753 90.882 59.0413 90.728 58.528 90.728C58.0426 90.728 57.632 90.8773 57.296 91.176C56.9693 91.4653 56.7686 91.8713 56.694 92.394H60.376Z" fill="#717171"/>
<path d="M195.462 118.122C195.462 117.319 195.625 116.619 195.952 116.022C196.279 115.415 196.731 114.949 197.31 114.622C197.889 114.286 198.551 114.118 199.298 114.118C200.259 114.118 201.053 114.361 201.678 114.846C202.313 115.322 202.737 115.994 202.952 116.862H200.838C200.726 116.526 200.535 116.265 200.264 116.078C200.003 115.882 199.676 115.784 199.284 115.784C198.724 115.784 198.281 115.989 197.954 116.4C197.627 116.801 197.464 117.375 197.464 118.122C197.464 118.859 197.627 119.433 197.954 119.844C198.281 120.245 198.724 120.446 199.284 120.446C200.077 120.446 200.595 120.091 200.838 119.382H202.952C202.737 120.222 202.313 120.889 201.678 121.384C201.043 121.879 200.25 122.126 199.298 122.126C198.551 122.126 197.889 121.963 197.31 121.636C196.731 121.3 196.279 120.833 195.952 120.236C195.625 119.629 195.462 118.925 195.462 118.122ZM204.08 120.012V118.472L208.658 111.92H210.94V118.304H212.172V120.012H210.94V122H208.98V120.012H204.08ZM209.106 114.02L206.236 118.304H209.106V114.02ZM215.786 119.942L214.148 123.876H212.888L213.798 119.942H215.786ZM220.03 118.122C220.03 117.319 220.194 116.619 220.52 116.022C220.847 115.415 221.3 114.949 221.878 114.622C222.457 114.286 223.12 114.118 223.866 114.118C224.828 114.118 225.621 114.361 226.246 114.846C226.881 115.322 227.306 115.994 227.52 116.862H225.406C225.294 116.526 225.103 116.265 224.832 116.078C224.571 115.882 224.244 115.784 223.852 115.784C223.292 115.784 222.849 115.989 222.522 116.4C222.196 116.801 222.032 117.375 222.032 118.122C222.032 118.859 222.196 119.433 222.522 119.844C222.849 120.245 223.292 120.446 223.852 120.446C224.646 120.446 225.164 120.091 225.406 119.382H227.52C227.306 120.222 226.881 120.889 226.246 121.384C225.612 121.879 224.818 122.126 223.866 122.126C223.12 122.126 222.457 121.963 221.878 121.636C221.3 121.3 220.847 120.833 220.52 120.236C220.194 119.629 220.03 118.925 220.03 118.122ZM235.592 113.488H231.056V115.882C231.252 115.639 231.532 115.443 231.896 115.294C232.26 115.135 232.648 115.056 233.058 115.056C233.805 115.056 234.416 115.219 234.892 115.546C235.368 115.873 235.714 116.293 235.928 116.806C236.143 117.31 236.25 117.851 236.25 118.43C236.25 119.503 235.942 120.367 235.326 121.02C234.72 121.673 233.852 122 232.722 122C231.658 122 230.809 121.734 230.174 121.202C229.54 120.67 229.18 119.975 229.096 119.116H231C231.084 119.489 231.271 119.788 231.56 120.012C231.859 120.236 232.237 120.348 232.694 120.348C233.245 120.348 233.66 120.175 233.94 119.83C234.22 119.485 234.36 119.027 234.36 118.458C234.36 117.879 234.216 117.441 233.926 117.142C233.646 116.834 233.231 116.68 232.68 116.68C232.288 116.68 231.962 116.778 231.7 116.974C231.439 117.17 231.252 117.431 231.14 117.758H229.264V111.766H235.592V113.488Z" fill="black"/>
<path d="M198.186 97.098C197.505 97.098 196.889 96.9813 196.338 96.748C195.797 96.5147 195.368 96.1787 195.05 95.74C194.733 95.3013 194.57 94.7833 194.56 94.186H196.66C196.688 94.5873 196.828 94.9047 197.08 95.138C197.342 95.3713 197.696 95.488 198.144 95.488C198.602 95.488 198.961 95.3807 199.222 95.166C199.484 94.942 199.614 94.6527 199.614 94.298C199.614 94.0087 199.526 93.7707 199.348 93.584C199.171 93.3973 198.947 93.2527 198.676 93.15C198.415 93.038 198.051 92.9167 197.584 92.786C196.95 92.5993 196.432 92.4173 196.03 92.24C195.638 92.0533 195.298 91.778 195.008 91.414C194.728 91.0407 194.588 90.546 194.588 89.93C194.588 89.3513 194.733 88.8473 195.022 88.418C195.312 87.9887 195.718 87.662 196.24 87.438C196.763 87.2047 197.36 87.088 198.032 87.088C199.04 87.088 199.857 87.3353 200.482 87.83C201.117 88.3153 201.467 88.9967 201.532 89.874H199.376C199.358 89.538 199.213 89.2627 198.942 89.048C198.681 88.824 198.331 88.712 197.892 88.712C197.51 88.712 197.202 88.81 196.968 89.006C196.744 89.202 196.632 89.4867 196.632 89.86C196.632 90.1213 196.716 90.3407 196.884 90.518C197.062 90.686 197.276 90.826 197.528 90.938C197.79 91.0407 198.154 91.162 198.62 91.302C199.255 91.4887 199.773 91.6753 200.174 91.862C200.576 92.0487 200.921 92.3287 201.21 92.702C201.5 93.0753 201.644 93.5653 201.644 94.172C201.644 94.6947 201.509 95.18 201.238 95.628C200.968 96.076 200.571 96.4353 200.048 96.706C199.526 96.9673 198.905 97.098 198.186 97.098ZM210.553 92.954C210.553 93.234 210.535 93.486 210.497 93.71H204.827C204.874 94.27 205.07 94.7087 205.415 95.026C205.761 95.3433 206.185 95.502 206.689 95.502C207.417 95.502 207.935 95.1893 208.243 94.564H210.357C210.133 95.3107 209.704 95.9267 209.069 96.412C208.435 96.888 207.655 97.126 206.731 97.126C205.985 97.126 205.313 96.9627 204.715 96.636C204.127 96.3 203.665 95.8287 203.329 95.222C203.003 94.6153 202.839 93.9153 202.839 93.122C202.839 92.3193 203.003 91.6147 203.329 91.008C203.656 90.4013 204.113 89.9347 204.701 89.608C205.289 89.2813 205.966 89.118 206.731 89.118C207.469 89.118 208.127 89.2767 208.705 89.594C209.293 89.9113 209.746 90.364 210.063 90.952C210.39 91.5307 210.553 92.198 210.553 92.954ZM208.523 92.394C208.514 91.89 208.332 91.4887 207.977 91.19C207.623 90.882 207.189 90.728 206.675 90.728C206.19 90.728 205.779 90.8773 205.443 91.176C205.117 91.4653 204.916 91.8713 204.841 92.394H208.523ZM211.48 93.094C211.48 92.31 211.634 91.6147 211.942 91.008C212.259 90.4013 212.684 89.9347 213.216 89.608C213.757 89.2813 214.359 89.118 215.022 89.118C215.601 89.118 216.105 89.2347 216.534 89.468C216.973 89.7013 217.323 89.9953 217.584 90.35V89.244H219.558V97H217.584V95.866C217.332 96.23 216.982 96.5333 216.534 96.776C216.095 97.0093 215.587 97.126 215.008 97.126C214.355 97.126 213.757 96.958 213.216 96.622C212.684 96.286 212.259 95.8147 211.942 95.208C211.634 94.592 211.48 93.8873 211.48 93.094ZM217.584 93.122C217.584 92.646 217.491 92.24 217.304 91.904C217.117 91.5587 216.865 91.2973 216.548 91.12C216.231 90.9333 215.89 90.84 215.526 90.84C215.162 90.84 214.826 90.9287 214.518 91.106C214.21 91.2833 213.958 91.5447 213.762 91.89C213.575 92.226 213.482 92.6273 213.482 93.094C213.482 93.5607 213.575 93.9713 213.762 94.326C213.958 94.6713 214.21 94.9373 214.518 95.124C214.835 95.3107 215.171 95.404 215.526 95.404C215.89 95.404 216.231 95.3153 216.548 95.138C216.865 94.9513 217.117 94.69 217.304 94.354C217.491 94.0087 217.584 93.598 217.584 93.122ZM223.754 90.854V94.606C223.754 94.8673 223.815 95.0587 223.936 95.18C224.067 95.292 224.282 95.348 224.58 95.348H225.49V97H224.258C222.606 97 221.78 96.1973 221.78 94.592V90.854H220.856V89.244H221.78V87.326H223.754V89.244H225.49V90.854H223.754ZM229.868 97.126C229.233 97.126 228.664 97.014 228.16 96.79C227.656 96.5567 227.255 96.244 226.956 95.852C226.667 95.46 226.508 95.026 226.48 94.55H228.454C228.491 94.8487 228.636 95.096 228.888 95.292C229.149 95.488 229.471 95.586 229.854 95.586C230.227 95.586 230.517 95.5113 230.722 95.362C230.937 95.2127 231.044 95.0213 231.044 94.788C231.044 94.536 230.913 94.3493 230.652 94.228C230.4 94.0973 229.994 93.9573 229.434 93.808C228.855 93.668 228.379 93.5233 228.006 93.374C227.642 93.2247 227.325 92.996 227.054 92.688C226.793 92.38 226.662 91.9647 226.662 91.442C226.662 91.0127 226.783 90.6207 227.026 90.266C227.278 89.9113 227.633 89.6313 228.09 89.426C228.557 89.2207 229.103 89.118 229.728 89.118C230.652 89.118 231.389 89.3513 231.94 89.818C232.491 90.2753 232.794 90.896 232.85 91.68H230.974C230.946 91.372 230.815 91.1293 230.582 90.952C230.358 90.7653 230.055 90.672 229.672 90.672C229.317 90.672 229.042 90.7373 228.846 90.868C228.659 90.9987 228.566 91.1807 228.566 91.414C228.566 91.6753 228.697 91.876 228.958 92.016C229.219 92.1467 229.625 92.282 230.176 92.422C230.736 92.562 231.198 92.7067 231.562 92.856C231.926 93.0053 232.239 93.2387 232.5 93.556C232.771 93.864 232.911 94.2747 232.92 94.788C232.92 95.236 232.794 95.6373 232.542 95.992C232.299 96.3467 231.945 96.6267 231.478 96.832C231.021 97.028 230.484 97.126 229.868 97.126Z" fill="#717171"/>
<path d="M194.742 192.764C194.742 191.149 195.031 189.885 195.61 188.97C196.198 188.055 197.169 187.598 198.522 187.598C199.875 187.598 200.841 188.055 201.42 188.97C202.008 189.885 202.302 191.149 202.302 192.764C202.302 194.388 202.008 195.662 201.42 196.586C200.841 197.51 199.875 197.972 198.522 197.972C197.169 197.972 196.198 197.51 195.61 196.586C195.031 195.662 194.742 194.388 194.742 192.764ZM200.37 192.764C200.37 192.073 200.323 191.495 200.23 191.028C200.146 190.552 199.969 190.165 199.698 189.866C199.437 189.567 199.045 189.418 198.522 189.418C197.999 189.418 197.603 189.567 197.332 189.866C197.071 190.165 196.893 190.552 196.8 191.028C196.716 191.495 196.674 192.073 196.674 192.764C196.674 193.473 196.716 194.071 196.8 194.556C196.884 195.032 197.061 195.419 197.332 195.718C197.603 196.007 197.999 196.152 198.522 196.152C199.045 196.152 199.441 196.007 199.712 195.718C199.983 195.419 200.16 195.032 200.244 194.556C200.328 194.071 200.37 193.473 200.37 192.764ZM203.555 189.6V187.794H206.929V198H204.913V189.6H203.555ZM209.957 198.098C209.602 198.098 209.308 197.991 209.075 197.776C208.851 197.552 208.739 197.277 208.739 196.95C208.739 196.623 208.851 196.353 209.075 196.138C209.308 195.914 209.602 195.802 209.957 195.802C210.302 195.802 210.587 195.914 210.811 196.138C211.035 196.353 211.147 196.623 211.147 196.95C211.147 197.277 211.035 197.552 210.811 197.776C210.587 197.991 210.302 198.098 209.957 198.098ZM212.502 192.764C212.502 191.149 212.791 189.885 213.37 188.97C213.958 188.055 214.928 187.598 216.282 187.598C217.635 187.598 218.601 188.055 219.18 188.97C219.768 189.885 220.062 191.149 220.062 192.764C220.062 194.388 219.768 195.662 219.18 196.586C218.601 197.51 217.635 197.972 216.282 197.972C214.928 197.972 213.958 197.51 213.37 196.586C212.791 195.662 212.502 194.388 212.502 192.764ZM218.13 192.764C218.13 192.073 218.083 191.495 217.99 191.028C217.906 190.552 217.728 190.165 217.458 189.866C217.196 189.567 216.804 189.418 216.282 189.418C215.759 189.418 215.362 189.567 215.092 189.866C214.83 190.165 214.653 190.552 214.56 191.028C214.476 191.495 214.434 192.073 214.434 192.764C214.434 193.473 214.476 194.071 214.56 194.556C214.644 195.032 214.821 195.419 215.092 195.718C215.362 196.007 215.759 196.152 216.282 196.152C216.804 196.152 217.201 196.007 217.472 195.718C217.742 195.419 217.92 195.032 218.004 194.556C218.088 194.071 218.13 193.473 218.13 192.764ZM221.553 192.764C221.553 191.149 221.842 189.885 222.421 188.97C223.009 188.055 223.979 187.598 225.333 187.598C226.686 187.598 227.652 188.055 228.231 188.97C228.819 189.885 229.113 191.149 229.113 192.764C229.113 194.388 228.819 195.662 228.231 196.586C227.652 197.51 226.686 197.972 225.333 197.972C223.979 197.972 223.009 197.51 222.421 196.586C221.842 195.662 221.553 194.388 221.553 192.764ZM227.181 192.764C227.181 192.073 227.134 191.495 227.041 191.028C226.957 190.552 226.779 190.165 226.509 189.866C226.247 189.567 225.855 189.418 225.333 189.418C224.81 189.418 224.413 189.567 224.143 189.866C223.881 190.165 223.704 190.552 223.611 191.028C223.527 191.495 223.485 192.073 223.485 192.764C223.485 193.473 223.527 194.071 223.611 194.556C223.695 195.032 223.872 195.419 224.143 195.718C224.413 196.007 224.81 196.152 225.333 196.152C225.855 196.152 226.252 196.007 226.523 195.718C226.793 195.419 226.971 195.032 227.055 194.556C227.139 194.071 227.181 193.473 227.181 192.764ZM241.289 191.252C241.289 191.775 241.163 192.265 240.911 192.722C240.669 193.179 240.281 193.548 239.749 193.828C239.227 194.108 238.564 194.248 237.761 194.248H236.123V198H234.163V188.228H237.761C238.517 188.228 239.161 188.359 239.693 188.62C240.225 188.881 240.622 189.241 240.883 189.698C241.154 190.155 241.289 190.673 241.289 191.252ZM237.677 192.666C238.219 192.666 238.62 192.545 238.881 192.302C239.143 192.05 239.273 191.7 239.273 191.252C239.273 190.3 238.741 189.824 237.677 189.824H236.123V192.666H237.677ZM253.335 188.228V198H251.375V191.644L248.757 198H247.273L244.641 191.644V198H242.681V188.228H244.907L248.015 195.494L251.123 188.228H253.335Z" fill="black"/>
<path d="M201.462 163.228V164.81H198.858V173H196.898V164.81H194.294V163.228H201.462ZM203.886 164.32C203.541 164.32 203.252 164.213 203.018 163.998C202.794 163.774 202.682 163.499 202.682 163.172C202.682 162.845 202.794 162.575 203.018 162.36C203.252 162.136 203.541 162.024 203.886 162.024C204.232 162.024 204.516 162.136 204.74 162.36C204.974 162.575 205.09 162.845 205.09 163.172C205.09 163.499 204.974 163.774 204.74 163.998C204.516 164.213 204.232 164.32 203.886 164.32ZM204.852 165.244V173H202.892V165.244H204.852ZM216.421 165.132C217.373 165.132 218.138 165.426 218.717 166.014C219.305 166.593 219.599 167.405 219.599 168.45V173H217.639V168.716C217.639 168.109 217.485 167.647 217.177 167.33C216.869 167.003 216.449 166.84 215.917 166.84C215.385 166.84 214.96 167.003 214.643 167.33C214.335 167.647 214.181 168.109 214.181 168.716V173H212.221V168.716C212.221 168.109 212.067 167.647 211.759 167.33C211.451 167.003 211.031 166.84 210.499 166.84C209.957 166.84 209.528 167.003 209.211 167.33C208.903 167.647 208.749 168.109 208.749 168.716V173H206.789V165.244H208.749V166.182C209.001 165.855 209.323 165.599 209.715 165.412C210.116 165.225 210.555 165.132 211.031 165.132C211.637 165.132 212.179 165.263 212.655 165.524C213.131 165.776 213.499 166.14 213.761 166.616C214.013 166.168 214.377 165.809 214.853 165.538C215.338 165.267 215.861 165.132 216.421 165.132ZM228.669 168.954C228.669 169.234 228.65 169.486 228.613 169.71H222.943C222.989 170.27 223.185 170.709 223.531 171.026C223.876 171.343 224.301 171.502 224.805 171.502C225.533 171.502 226.051 171.189 226.359 170.564H228.473C228.249 171.311 227.819 171.927 227.185 172.412C226.55 172.888 225.771 173.126 224.847 173.126C224.1 173.126 223.428 172.963 222.831 172.636C222.243 172.3 221.781 171.829 221.445 171.222C221.118 170.615 220.955 169.915 220.955 169.122C220.955 168.319 221.118 167.615 221.445 167.008C221.771 166.401 222.229 165.935 222.817 165.608C223.405 165.281 224.081 165.118 224.847 165.118C225.584 165.118 226.242 165.277 226.821 165.594C227.409 165.911 227.861 166.364 228.179 166.952C228.505 167.531 228.669 168.198 228.669 168.954ZM226.639 168.394C226.629 167.89 226.447 167.489 226.093 167.19C225.738 166.882 225.304 166.728 224.791 166.728C224.305 166.728 223.895 166.877 223.559 167.176C223.232 167.465 223.031 167.871 222.957 168.394H226.639Z" fill="#717171"/>
<path d="M34.2628 195.998L36.9368 188.228H39.0228L35.4388 198H33.0588L29.4748 188.228H31.5748L34.2628 195.998ZM40.1979 198V190.244H42.1579V198H40.1979ZM41.1919 189.32C40.4919 189.32 39.9879 188.816 39.9879 188.172C39.9879 187.528 40.4919 187.024 41.1919 187.024C41.8779 187.024 42.3959 187.528 42.3959 188.172C42.3959 188.816 41.8779 189.32 41.1919 189.32ZM43.2684 190.244H45.3684L47.3284 196.194L49.2884 190.244H51.3744L48.5044 198H46.1244L43.2684 190.244ZM51.9713 194.094C51.9713 191.672 53.5393 190.118 55.5133 190.118C56.7593 190.118 57.6133 190.706 58.0753 191.35V190.244H60.0493V198H58.0753V196.866C57.6133 197.538 56.7313 198.126 55.4993 198.126C53.5393 198.126 51.9713 196.516 51.9713 194.094ZM58.0753 194.122C58.0753 192.652 57.0953 191.84 56.0173 191.84C54.9673 191.84 53.9733 192.624 53.9733 194.094C53.9733 195.564 54.9673 196.404 56.0173 196.404C57.0953 196.404 58.0753 195.592 58.0753 194.122ZM64.8235 193.1C64.8235 190.174 66.9655 188.102 69.7795 188.102C71.9495 188.102 73.7135 189.264 74.3715 191.266H72.1175C71.6555 190.328 70.8155 189.866 69.7655 189.866C68.0575 189.866 66.8395 191.112 66.8395 193.1C66.8395 195.074 68.0575 196.334 69.7655 196.334C70.8155 196.334 71.6555 195.872 72.1175 194.92H74.3715C73.7135 196.936 71.9495 198.084 69.7795 198.084C66.9655 198.084 64.8235 196.026 64.8235 193.1ZM76.0456 198V190.244H78.0056V198H76.0456ZM77.0396 189.32C76.3396 189.32 75.8356 188.816 75.8356 188.172C75.8356 187.528 76.3396 187.024 77.0396 187.024C77.7256 187.024 78.2436 187.528 78.2436 188.172C78.2436 188.816 77.7256 189.32 77.0396 189.32ZM85.3741 198V193.716C85.3741 192.47 84.6881 191.798 83.6521 191.798C82.5881 191.798 81.9021 192.47 81.9021 193.716V198H79.9421V190.244H81.9021V191.21C82.4061 190.552 83.2461 190.132 84.2401 190.132C86.0461 190.132 87.3341 191.308 87.3341 193.45V198H85.3741ZM92.5299 191.728C91.5919 191.728 90.8499 192.33 90.6959 193.394H94.3779C94.3499 192.372 93.5379 191.728 92.5299 191.728ZM96.2119 195.564C95.7919 196.992 94.5039 198.126 92.5859 198.126C90.3319 198.126 88.6939 196.558 88.6939 194.122C88.6939 191.672 90.2899 190.118 92.5859 190.118C94.8259 190.118 96.4079 191.644 96.4079 193.954C96.4079 194.206 96.3939 194.458 96.3519 194.71H90.6819C90.7799 195.858 91.5639 196.502 92.5439 196.502C93.3839 196.502 93.8459 196.082 94.0979 195.564H96.2119ZM108.689 198V193.716C108.689 192.484 108.003 191.84 106.967 191.84C105.917 191.84 105.231 192.484 105.231 193.716V198H103.271V193.716C103.271 192.484 102.585 191.84 101.549 191.84C100.485 191.84 99.7986 192.484 99.7986 193.716V198H97.8386V190.244H99.7986V191.182C100.289 190.538 101.115 190.132 102.081 190.132C103.285 190.132 104.279 190.65 104.811 191.616C105.315 190.734 106.337 190.132 107.471 190.132C109.333 190.132 110.649 191.308 110.649 193.45V198H108.689ZM112.004 194.094C112.004 191.672 113.572 190.118 115.546 190.118C116.792 190.118 117.646 190.706 118.108 191.35V190.244H120.082V198H118.108V196.866C117.646 197.538 116.764 198.126 115.532 198.126C113.572 198.126 112.004 196.516 112.004 194.094ZM118.108 194.122C118.108 192.652 117.128 191.84 116.05 191.84C115 191.84 114.006 192.624 114.006 194.094C114.006 195.564 115 196.404 116.05 196.404C117.128 196.404 118.108 195.592 118.108 194.122Z" fill="black"/>
<path d="M32.2048 171.446H35.4248V173H30.2448V163.228H32.2048V171.446ZM40.1146 173.126C39.3679 173.126 38.6959 172.963 38.0986 172.636C37.5013 172.3 37.0299 171.829 36.6846 171.222C36.3486 170.615 36.1806 169.915 36.1806 169.122C36.1806 168.329 36.3533 167.629 36.6986 167.022C37.0533 166.415 37.5339 165.949 38.1406 165.622C38.7473 165.286 39.4239 165.118 40.1706 165.118C40.9173 165.118 41.5939 165.286 42.2006 165.622C42.8073 165.949 43.2833 166.415 43.6286 167.022C43.9833 167.629 44.1606 168.329 44.1606 169.122C44.1606 169.915 43.9786 170.615 43.6146 171.222C43.2599 171.829 42.7746 172.3 42.1586 172.636C41.5519 172.963 40.8706 173.126 40.1146 173.126ZM40.1146 171.418C40.4693 171.418 40.8006 171.334 41.1086 171.166C41.4259 170.989 41.6779 170.727 41.8646 170.382C42.0513 170.037 42.1446 169.617 42.1446 169.122C42.1446 168.385 41.9486 167.82 41.5566 167.428C41.1739 167.027 40.7026 166.826 40.1426 166.826C39.5826 166.826 39.1113 167.027 38.7286 167.428C38.3553 167.82 38.1686 168.385 38.1686 169.122C38.1686 169.859 38.3506 170.429 38.7146 170.83C39.0879 171.222 39.5546 171.418 40.1146 171.418ZM45.0943 169.122C45.0943 168.319 45.2577 167.619 45.5843 167.022C45.911 166.415 46.3637 165.949 46.9423 165.622C47.521 165.286 48.1837 165.118 48.9303 165.118C49.8917 165.118 50.685 165.361 51.3103 165.846C51.945 166.322 52.3697 166.994 52.5843 167.862H50.4703C50.3583 167.526 50.167 167.265 49.8963 167.078C49.635 166.882 49.3083 166.784 48.9163 166.784C48.3563 166.784 47.913 166.989 47.5863 167.4C47.2597 167.801 47.0963 168.375 47.0963 169.122C47.0963 169.859 47.2597 170.433 47.5863 170.844C47.913 171.245 48.3563 171.446 48.9163 171.446C49.7097 171.446 50.2277 171.091 50.4703 170.382H52.5843C52.3697 171.222 51.945 171.889 51.3103 172.384C50.6757 172.879 49.8823 173.126 48.9303 173.126C48.1837 173.126 47.521 172.963 46.9423 172.636C46.3637 172.3 45.911 171.833 45.5843 171.236C45.2577 170.629 45.0943 169.925 45.0943 169.122ZM53.5162 169.094C53.5162 168.31 53.6702 167.615 53.9782 167.008C54.2955 166.401 54.7202 165.935 55.2522 165.608C55.7935 165.281 56.3955 165.118 57.0582 165.118C57.6369 165.118 58.1409 165.235 58.5702 165.468C59.0089 165.701 59.3589 165.995 59.6202 166.35V165.244H61.5942V173H59.6202V171.866C59.3682 172.23 59.0182 172.533 58.5702 172.776C58.1315 173.009 57.6229 173.126 57.0442 173.126C56.3909 173.126 55.7935 172.958 55.2522 172.622C54.7202 172.286 54.2955 171.815 53.9782 171.208C53.6702 170.592 53.5162 169.887 53.5162 169.094ZM59.6202 169.122C59.6202 168.646 59.5269 168.24 59.3402 167.904C59.1535 167.559 58.9015 167.297 58.5842 167.12C58.2669 166.933 57.9262 166.84 57.5622 166.84C57.1982 166.84 56.8622 166.929 56.5542 167.106C56.2462 167.283 55.9942 167.545 55.7982 167.89C55.6115 168.226 55.5182 168.627 55.5182 169.094C55.5182 169.561 55.6115 169.971 55.7982 170.326C55.9942 170.671 56.2462 170.937 56.5542 171.124C56.8715 171.311 57.2075 171.404 57.5622 171.404C57.9262 171.404 58.2669 171.315 58.5842 171.138C58.9015 170.951 59.1535 170.69 59.3402 170.354C59.5269 170.009 59.6202 169.598 59.6202 169.122ZM65.7905 166.854V170.606C65.7905 170.867 65.8511 171.059 65.9725 171.18C66.1031 171.292 66.3178 171.348 66.6165 171.348H67.5265V173H66.2945C64.6425 173 63.8165 172.197 63.8165 170.592V166.854H62.8925V165.244H63.8165V163.326H65.7905V165.244H67.5265V166.854H65.7905ZM69.9302 164.32C69.5849 164.32 69.2955 164.213 69.0622 163.998C68.8382 163.774 68.7262 163.499 68.7262 163.172C68.7262 162.845 68.8382 162.575 69.0622 162.36C69.2955 162.136 69.5849 162.024 69.9302 162.024C70.2755 162.024 70.5602 162.136 70.7842 162.36C71.0175 162.575 71.1342 162.845 71.1342 163.172C71.1342 163.499 71.0175 163.774 70.7842 163.998C70.5602 164.213 70.2755 164.32 69.9302 164.32ZM70.8962 165.244V173H68.9362V165.244H70.8962ZM76.2767 173.126C75.53 173.126 74.858 172.963 74.2607 172.636C73.6634 172.3 73.192 171.829 72.8467 171.222C72.5107 170.615 72.3427 169.915 72.3427 169.122C72.3427 168.329 72.5154 167.629 72.8607 167.022C73.2154 166.415 73.696 165.949 74.3027 165.622C74.9094 165.286 75.586 165.118 76.3327 165.118C77.0794 165.118 77.756 165.286 78.3627 165.622C78.9694 165.949 79.4454 166.415 79.7907 167.022C80.1454 167.629 80.3227 168.329 80.3227 169.122C80.3227 169.915 80.1407 170.615 79.7767 171.222C79.422 171.829 78.9367 172.3 78.3207 172.636C77.714 172.963 77.0327 173.126 76.2767 173.126ZM76.2767 171.418C76.6314 171.418 76.9627 171.334 77.2707 171.166C77.588 170.989 77.84 170.727 78.0267 170.382C78.2134 170.037 78.3067 169.617 78.3067 169.122C78.3067 168.385 78.1107 167.82 77.7187 167.428C77.336 167.027 76.8647 166.826 76.3047 166.826C75.7447 166.826 75.2734 167.027 74.8907 167.428C74.5174 167.82 74.3307 168.385 74.3307 169.122C74.3307 169.859 74.5127 170.429 74.8767 170.83C75.25 171.222 75.7167 171.418 76.2767 171.418ZM86.0584 165.132C86.9824 165.132 87.7291 165.426 88.2984 166.014C88.8678 166.593 89.1524 167.405 89.1524 168.45V173H87.1924V168.716C87.1924 168.1 87.0384 167.629 86.7304 167.302C86.4224 166.966 86.0024 166.798 85.4704 166.798C84.9291 166.798 84.4998 166.966 84.1824 167.302C83.8744 167.629 83.7204 168.1 83.7204 168.716V173H81.7604V165.244H83.7204V166.21C83.9818 165.874 84.3131 165.613 84.7144 165.426C85.1251 165.23 85.5731 165.132 86.0584 165.132Z" fill="#717171"/>
<path d="M194.35 265.6V263.794H197.724V274H195.708V265.6H194.35ZM201.928 271.13C202.003 271.541 202.171 271.858 202.432 272.082C202.703 272.297 203.062 272.404 203.51 272.404C204.089 272.404 204.509 272.166 204.77 271.69C205.032 271.205 205.162 270.393 205.162 269.254C204.948 269.553 204.644 269.786 204.252 269.954C203.87 270.122 203.454 270.206 203.006 270.206C202.409 270.206 201.868 270.085 201.382 269.842C200.906 269.59 200.528 269.221 200.248 268.736C199.968 268.241 199.828 267.644 199.828 266.944C199.828 265.908 200.136 265.087 200.752 264.48C201.368 263.864 202.208 263.556 203.272 263.556C204.598 263.556 205.531 263.981 206.072 264.83C206.623 265.679 206.898 266.958 206.898 268.666C206.898 269.879 206.791 270.873 206.576 271.648C206.371 272.423 206.012 273.011 205.498 273.412C204.994 273.813 204.304 274.014 203.426 274.014C202.736 274.014 202.148 273.883 201.662 273.622C201.177 273.351 200.804 273.001 200.542 272.572C200.29 272.133 200.146 271.653 200.108 271.13H201.928ZM203.412 268.61C203.898 268.61 204.28 268.461 204.56 268.162C204.84 267.863 204.98 267.462 204.98 266.958C204.98 266.407 204.831 265.983 204.532 265.684C204.243 265.376 203.846 265.222 203.342 265.222C202.838 265.222 202.437 265.381 202.138 265.698C201.849 266.006 201.704 266.417 201.704 266.93C201.704 267.425 201.844 267.831 202.124 268.148C202.414 268.456 202.843 268.61 203.412 268.61ZM208.424 268.764C208.424 267.149 208.713 265.885 209.292 264.97C209.88 264.055 210.851 263.598 212.204 263.598C213.557 263.598 214.523 264.055 215.102 264.97C215.69 265.885 215.984 267.149 215.984 268.764C215.984 270.388 215.69 271.662 215.102 272.586C214.523 273.51 213.557 273.972 212.204 273.972C210.851 273.972 209.88 273.51 209.292 272.586C208.713 271.662 208.424 270.388 208.424 268.764ZM214.052 268.764C214.052 268.073 214.005 267.495 213.912 267.028C213.828 266.552 213.651 266.165 213.38 265.866C213.119 265.567 212.727 265.418 212.204 265.418C211.681 265.418 211.285 265.567 211.014 265.866C210.753 266.165 210.575 266.552 210.482 267.028C210.398 267.495 210.356 268.073 210.356 268.764C210.356 269.473 210.398 270.071 210.482 270.556C210.566 271.032 210.743 271.419 211.014 271.718C211.285 272.007 211.681 272.152 212.204 272.152C212.727 272.152 213.123 272.007 213.394 271.718C213.665 271.419 213.842 271.032 213.926 270.556C214.01 270.071 214.052 269.473 214.052 268.764ZM217.391 272.012V270.472L221.969 263.92H224.251V270.304H225.483V272.012H224.251V274H222.291V272.012H217.391ZM222.417 266.02L219.547 270.304H222.417V266.02ZM233.591 265.488H229.055V267.882C229.251 267.639 229.531 267.443 229.895 267.294C230.259 267.135 230.646 267.056 231.057 267.056C231.803 267.056 232.415 267.219 232.891 267.546C233.367 267.873 233.712 268.293 233.927 268.806C234.141 269.31 234.249 269.851 234.249 270.43C234.249 271.503 233.941 272.367 233.325 273.02C232.718 273.673 231.85 274 230.721 274C229.657 274 228.807 273.734 228.173 273.202C227.538 272.67 227.179 271.975 227.095 271.116H228.999C229.083 271.489 229.269 271.788 229.559 272.012C229.857 272.236 230.235 272.348 230.693 272.348C231.243 272.348 231.659 272.175 231.939 271.83C232.219 271.485 232.359 271.027 232.359 270.458C232.359 269.879 232.214 269.441 231.925 269.142C231.645 268.834 231.229 268.68 230.679 268.68C230.287 268.68 229.96 268.778 229.699 268.974C229.437 269.17 229.251 269.431 229.139 269.758H227.263V263.766H233.591V265.488ZM241.033 266.342C240.939 265.95 240.776 265.656 240.543 265.46C240.319 265.264 239.992 265.166 239.563 265.166C238.919 265.166 238.443 265.427 238.135 265.95C237.836 266.463 237.682 267.303 237.673 268.47C237.897 268.097 238.223 267.807 238.653 267.602C239.082 267.387 239.549 267.28 240.053 267.28C240.659 267.28 241.196 267.411 241.663 267.672C242.129 267.933 242.493 268.316 242.755 268.82C243.016 269.315 243.147 269.912 243.147 270.612C243.147 271.275 243.011 271.867 242.741 272.39C242.479 272.903 242.092 273.305 241.579 273.594C241.065 273.883 240.454 274.028 239.745 274.028C238.774 274.028 238.009 273.813 237.449 273.384C236.898 272.955 236.511 272.357 236.287 271.592C236.072 270.817 235.965 269.865 235.965 268.736C235.965 267.028 236.259 265.74 236.847 264.872C237.435 263.995 238.363 263.556 239.633 263.556C240.613 263.556 241.373 263.822 241.915 264.354C242.456 264.886 242.769 265.549 242.853 266.342H241.033ZM239.605 268.89C239.11 268.89 238.695 269.035 238.359 269.324C238.023 269.613 237.855 270.033 237.855 270.584C237.855 271.135 238.009 271.569 238.317 271.886C238.634 272.203 239.077 272.362 239.647 272.362C240.151 272.362 240.547 272.208 240.837 271.9C241.135 271.592 241.285 271.177 241.285 270.654C241.285 270.113 241.14 269.683 240.851 269.366C240.571 269.049 240.155 268.89 239.605 268.89ZM249.988 266.342C249.894 265.95 249.731 265.656 249.498 265.46C249.274 265.264 248.947 265.166 248.518 265.166C247.874 265.166 247.398 265.427 247.09 265.95C246.791 266.463 246.637 267.303 246.628 268.47C246.852 268.097 247.178 267.807 247.608 267.602C248.037 267.387 248.504 267.28 249.008 267.28C249.614 267.28 250.151 267.411 250.618 267.672C251.084 267.933 251.448 268.316 251.71 268.82C251.971 269.315 252.102 269.912 252.102 270.612C252.102 271.275 251.966 271.867 251.696 272.39C251.434 272.903 251.047 273.305 250.534 273.594C250.02 273.883 249.409 274.028 248.7 274.028C247.729 274.028 246.964 273.813 246.404 273.384C245.853 272.955 245.466 272.357 245.242 271.592C245.027 270.817 244.92 269.865 244.92 268.736C244.92 267.028 245.214 265.74 245.802 264.872C246.39 263.995 247.318 263.556 248.588 263.556C249.568 263.556 250.328 263.822 250.87 264.354C251.411 264.886 251.724 265.549 251.808 266.342H249.988ZM248.56 268.89C248.065 268.89 247.65 269.035 247.314 269.324C246.978 269.613 246.81 270.033 246.81 270.584C246.81 271.135 246.964 271.569 247.272 271.886C247.589 272.203 248.032 272.362 248.602 272.362C249.106 272.362 249.502 272.208 249.792 271.9C250.09 271.592 250.24 271.177 250.24 270.654C250.24 270.113 250.095 269.683 249.806 269.366C249.526 269.049 249.11 268.89 248.56 268.89Z" fill="black"/>
<path d="M199.348 249.098C198.434 249.098 197.594 248.883 196.828 248.454C196.063 248.025 195.456 247.432 195.008 246.676C194.56 245.911 194.336 245.047 194.336 244.086C194.336 243.134 194.56 242.28 195.008 241.524C195.456 240.759 196.063 240.161 196.828 239.732C197.594 239.303 198.434 239.088 199.348 239.088C200.272 239.088 201.112 239.303 201.868 239.732C202.634 240.161 203.236 240.759 203.674 241.524C204.122 242.28 204.346 243.134 204.346 244.086C204.346 245.047 204.122 245.911 203.674 246.676C203.236 247.432 202.634 248.025 201.868 248.454C201.103 248.883 200.263 249.098 199.348 249.098ZM199.348 247.348C199.936 247.348 200.454 247.217 200.902 246.956C201.35 246.685 201.7 246.303 201.952 245.808C202.204 245.313 202.33 244.739 202.33 244.086C202.33 243.433 202.204 242.863 201.952 242.378C201.7 241.883 201.35 241.505 200.902 241.244C200.454 240.983 199.936 240.852 199.348 240.852C198.76 240.852 198.238 240.983 197.78 241.244C197.332 241.505 196.982 241.883 196.73 242.378C196.478 242.863 196.352 243.433 196.352 244.086C196.352 244.739 196.478 245.313 196.73 245.808C196.982 246.303 197.332 246.685 197.78 246.956C198.238 247.217 198.76 247.348 199.348 247.348ZM207.764 242.448C208.016 242.037 208.343 241.715 208.744 241.482C209.155 241.249 209.622 241.132 210.144 241.132V243.19H209.626C209.01 243.19 208.544 243.335 208.226 243.624C207.918 243.913 207.764 244.417 207.764 245.136V249H205.804V241.244H207.764V242.448ZM210.961 245.094C210.961 244.31 211.115 243.615 211.423 243.008C211.74 242.401 212.169 241.935 212.711 241.608C213.252 241.281 213.854 241.118 214.517 241.118C215.021 241.118 215.501 241.23 215.959 241.454C216.416 241.669 216.78 241.958 217.051 242.322V238.64H219.039V249H217.051V247.852C216.808 248.235 216.467 248.543 216.029 248.776C215.59 249.009 215.081 249.126 214.503 249.126C213.849 249.126 213.252 248.958 212.711 248.622C212.169 248.286 211.74 247.815 211.423 247.208C211.115 246.592 210.961 245.887 210.961 245.094ZM217.065 245.122C217.065 244.646 216.971 244.24 216.785 243.904C216.598 243.559 216.346 243.297 216.029 243.12C215.711 242.933 215.371 242.84 215.007 242.84C214.643 242.84 214.307 242.929 213.999 243.106C213.691 243.283 213.439 243.545 213.243 243.89C213.056 244.226 212.963 244.627 212.963 245.094C212.963 245.561 213.056 245.971 213.243 246.326C213.439 246.671 213.691 246.937 213.999 247.124C214.316 247.311 214.652 247.404 215.007 247.404C215.371 247.404 215.711 247.315 216.029 247.138C216.346 246.951 216.598 246.69 216.785 246.354C216.971 246.009 217.065 245.598 217.065 245.122ZM228.163 244.954C228.163 245.234 228.144 245.486 228.107 245.71H222.437C222.483 246.27 222.679 246.709 223.025 247.026C223.37 247.343 223.795 247.502 224.299 247.502C225.027 247.502 225.545 247.189 225.853 246.564H227.967C227.743 247.311 227.313 247.927 226.679 248.412C226.044 248.888 225.265 249.126 224.341 249.126C223.594 249.126 222.922 248.963 222.325 248.636C221.737 248.3 221.275 247.829 220.939 247.222C220.612 246.615 220.449 245.915 220.449 245.122C220.449 244.319 220.612 243.615 220.939 243.008C221.265 242.401 221.723 241.935 222.311 241.608C222.899 241.281 223.575 241.118 224.341 241.118C225.078 241.118 225.736 241.277 226.315 241.594C226.903 241.911 227.355 242.364 227.673 242.952C227.999 243.531 228.163 244.198 228.163 244.954ZM226.133 244.394C226.123 243.89 225.941 243.489 225.587 243.19C225.232 242.882 224.798 242.728 224.285 242.728C223.799 242.728 223.389 242.877 223.053 243.176C222.726 243.465 222.525 243.871 222.451 244.394H226.133ZM231.553 242.448C231.805 242.037 232.132 241.715 232.533 241.482C232.944 241.249 233.411 241.132 233.933 241.132V243.19H233.415C232.799 243.19 232.333 243.335 232.015 243.624C231.707 243.913 231.553 244.417 231.553 245.136V249H229.593V241.244H231.553V242.448Z" fill="#717171"/>
<path d="M33.6188 274.098C32.9375 274.098 32.3215 273.981 31.7708 273.748C31.2295 273.515 30.8001 273.179 30.4828 272.74C30.1655 272.301 30.0021 271.783 29.9928 271.186H32.0928C32.1208 271.587 32.2608 271.905 32.5128 272.138C32.7741 272.371 33.1288 272.488 33.5768 272.488C34.0341 272.488 34.3935 272.381 34.6548 272.166C34.9161 271.942 35.0468 271.653 35.0468 271.298C35.0468 271.009 34.9581 270.771 34.7808 270.584C34.6035 270.397 34.3795 270.253 34.1088 270.15C33.8475 270.038 33.4835 269.917 33.0168 269.786C32.3821 269.599 31.8641 269.417 31.4628 269.24C31.0708 269.053 30.7301 268.778 30.4408 268.414C30.1608 268.041 30.0208 267.546 30.0208 266.93C30.0208 266.351 30.1655 265.847 30.4548 265.418C30.7441 264.989 31.1501 264.662 31.6728 264.438C32.1955 264.205 32.7928 264.088 33.4648 264.088C34.4728 264.088 35.2895 264.335 35.9148 264.83C36.5495 265.315 36.8995 265.997 36.9648 266.874H34.8088C34.7901 266.538 34.6455 266.263 34.3748 266.048C34.1135 265.824 33.7635 265.712 33.3248 265.712C32.9421 265.712 32.6341 265.81 32.4008 266.006C32.1768 266.202 32.0648 266.487 32.0648 266.86C32.0648 267.121 32.1488 267.341 32.3168 267.518C32.4941 267.686 32.7088 267.826 32.9608 267.938C33.2221 268.041 33.5861 268.162 34.0528 268.302C34.6875 268.489 35.2055 268.675 35.6068 268.862C36.0081 269.049 36.3535 269.329 36.6428 269.702C36.9321 270.075 37.0768 270.565 37.0768 271.172C37.0768 271.695 36.9415 272.18 36.6708 272.628C36.4001 273.076 36.0035 273.435 35.4808 273.706C34.9581 273.967 34.3375 274.098 33.6188 274.098ZM46.0981 266.244V274H44.1241V273.02C43.8721 273.356 43.5407 273.622 43.1301 273.818C42.7287 274.005 42.2901 274.098 41.8141 274.098C41.2074 274.098 40.6707 273.972 40.2041 273.72C39.7374 273.459 39.3687 273.081 39.0981 272.586C38.8367 272.082 38.7061 271.485 38.7061 270.794V266.244H40.6661V270.514C40.6661 271.13 40.8201 271.606 41.1281 271.942C41.4361 272.269 41.8561 272.432 42.3881 272.432C42.9294 272.432 43.3541 272.269 43.6621 271.942C43.9701 271.606 44.1241 271.13 44.1241 270.514V266.244H46.0981ZM47.5279 270.122C47.5279 269.319 47.6913 268.619 48.0179 268.022C48.3446 267.415 48.7973 266.949 49.3759 266.622C49.9546 266.286 50.6173 266.118 51.3639 266.118C52.3253 266.118 53.1186 266.361 53.7439 266.846C54.3786 267.322 54.8033 267.994 55.0179 268.862H52.9039C52.7919 268.526 52.6006 268.265 52.3299 268.078C52.0686 267.882 51.7419 267.784 51.3499 267.784C50.7899 267.784 50.3466 267.989 50.0199 268.4C49.6933 268.801 49.5299 269.375 49.5299 270.122C49.5299 270.859 49.6933 271.433 50.0199 271.844C50.3466 272.245 50.7899 272.446 51.3499 272.446C52.1433 272.446 52.6613 272.091 52.9039 271.382H55.0179C54.8033 272.222 54.3786 272.889 53.7439 273.384C53.1093 273.879 52.3159 274.126 51.3639 274.126C50.6173 274.126 49.9546 273.963 49.3759 273.636C48.7973 273.3 48.3446 272.833 48.0179 272.236C47.6913 271.629 47.5279 270.925 47.5279 270.122ZM55.9498 270.122C55.9498 269.319 56.1131 268.619 56.4398 268.022C56.7665 267.415 57.2191 266.949 57.7978 266.622C58.3765 266.286 59.0391 266.118 59.7858 266.118C60.7471 266.118 61.5405 266.361 62.1658 266.846C62.8005 267.322 63.2251 267.994 63.4398 268.862H61.3258C61.2138 268.526 61.0225 268.265 60.7518 268.078C60.4905 267.882 60.1638 267.784 59.7718 267.784C59.2118 267.784 58.7685 267.989 58.4418 268.4C58.1151 268.801 57.9518 269.375 57.9518 270.122C57.9518 270.859 58.1151 271.433 58.4418 271.844C58.7685 272.245 59.2118 272.446 59.7718 272.446C60.5651 272.446 61.0831 272.091 61.3258 271.382H63.4398C63.2251 272.222 62.8005 272.889 62.1658 273.384C61.5311 273.879 60.7378 274.126 59.7858 274.126C59.0391 274.126 58.3765 273.963 57.7978 273.636C57.2191 273.3 56.7665 272.833 56.4398 272.236C56.1131 271.629 55.9498 270.925 55.9498 270.122ZM72.0857 269.954C72.0857 270.234 72.067 270.486 72.0297 270.71H66.3597C66.4063 271.27 66.6023 271.709 66.9477 272.026C67.293 272.343 67.7177 272.502 68.2217 272.502C68.9497 272.502 69.4677 272.189 69.7757 271.564H71.8897C71.6657 272.311 71.2363 272.927 70.6017 273.412C69.967 273.888 69.1877 274.126 68.2637 274.126C67.517 274.126 66.845 273.963 66.2477 273.636C65.6597 273.3 65.1977 272.829 64.8617 272.222C64.535 271.615 64.3717 270.915 64.3717 270.122C64.3717 269.319 64.535 268.615 64.8617 268.008C65.1883 267.401 65.6457 266.935 66.2337 266.608C66.8217 266.281 67.4983 266.118 68.2637 266.118C69.001 266.118 69.659 266.277 70.2377 266.594C70.8257 266.911 71.2783 267.364 71.5957 267.952C71.9223 268.531 72.0857 269.198 72.0857 269.954ZM70.0557 269.394C70.0463 268.89 69.8643 268.489 69.5097 268.19C69.155 267.882 68.721 267.728 68.2077 267.728C67.7223 267.728 67.3117 267.877 66.9757 268.176C66.649 268.465 66.4483 268.871 66.3737 269.394H70.0557ZM76.4843 274.126C75.8496 274.126 75.2803 274.014 74.7763 273.79C74.2723 273.557 73.871 273.244 73.5723 272.852C73.283 272.46 73.1243 272.026 73.0963 271.55H75.0703C75.1076 271.849 75.2523 272.096 75.5043 272.292C75.7656 272.488 76.0876 272.586 76.4703 272.586C76.8436 272.586 77.133 272.511 77.3383 272.362C77.553 272.213 77.6603 272.021 77.6603 271.788C77.6603 271.536 77.5296 271.349 77.2683 271.228C77.0163 271.097 76.6103 270.957 76.0503 270.808C75.4716 270.668 74.9956 270.523 74.6223 270.374C74.2583 270.225 73.941 269.996 73.6703 269.688C73.409 269.38 73.2783 268.965 73.2783 268.442C73.2783 268.013 73.3996 267.621 73.6423 267.266C73.8943 266.911 74.249 266.631 74.7063 266.426C75.173 266.221 75.719 266.118 76.3443 266.118C77.2683 266.118 78.0056 266.351 78.5563 266.818C79.107 267.275 79.4103 267.896 79.4663 268.68H77.5903C77.5623 268.372 77.4316 268.129 77.1983 267.952C76.9743 267.765 76.671 267.672 76.2883 267.672C75.9336 267.672 75.6583 267.737 75.4623 267.868C75.2756 267.999 75.1823 268.181 75.1823 268.414C75.1823 268.675 75.313 268.876 75.5743 269.016C75.8356 269.147 76.2416 269.282 76.7923 269.422C77.3523 269.562 77.8143 269.707 78.1783 269.856C78.5423 270.005 78.855 270.239 79.1163 270.556C79.387 270.864 79.527 271.275 79.5363 271.788C79.5363 272.236 79.4103 272.637 79.1583 272.992C78.9156 273.347 78.561 273.627 78.0943 273.832C77.637 274.028 77.1003 274.126 76.4843 274.126ZM84.1132 274.126C83.4785 274.126 82.9092 274.014 82.4052 273.79C81.9012 273.557 81.4999 273.244 81.2012 272.852C80.9119 272.46 80.7532 272.026 80.7252 271.55H82.6992C82.7365 271.849 82.8812 272.096 83.1332 272.292C83.3945 272.488 83.7165 272.586 84.0992 272.586C84.4725 272.586 84.7619 272.511 84.9672 272.362C85.1819 272.213 85.2892 272.021 85.2892 271.788C85.2892 271.536 85.1585 271.349 84.8972 271.228C84.6452 271.097 84.2392 270.957 83.6792 270.808C83.1005 270.668 82.6245 270.523 82.2512 270.374C81.8872 270.225 81.5699 269.996 81.2992 269.688C81.0379 269.38 80.9072 268.965 80.9072 268.442C80.9072 268.013 81.0285 267.621 81.2712 267.266C81.5232 266.911 81.8779 266.631 82.3352 266.426C82.8019 266.221 83.3479 266.118 83.9732 266.118C84.8972 266.118 85.6345 266.351 86.1852 266.818C86.7359 267.275 87.0392 267.896 87.0952 268.68H85.2192C85.1912 268.372 85.0605 268.129 84.8272 267.952C84.6032 267.765 84.2999 267.672 83.9172 267.672C83.5625 267.672 83.2872 267.737 83.0912 267.868C82.9045 267.999 82.8112 268.181 82.8112 268.414C82.8112 268.675 82.9419 268.876 83.2032 269.016C83.4645 269.147 83.8705 269.282 84.4212 269.422C84.9812 269.562 85.4432 269.707 85.8072 269.856C86.1712 270.005 86.4839 270.239 86.7452 270.556C87.0159 270.864 87.1559 271.275 87.1652 271.788C87.1652 272.236 87.0392 272.637 86.7872 272.992C86.5445 273.347 86.1899 273.627 85.7232 273.832C85.2659 274.028 84.7292 274.126 84.1132 274.126ZM92.3301 267.854H90.9721V274H88.9841V267.854H88.1021V266.244H88.9841V265.852C88.9841 264.9 89.2548 264.2 89.7961 263.752C90.3374 263.304 91.1541 263.094 92.2461 263.122V264.774C91.7701 264.765 91.4388 264.844 91.2521 265.012C91.0654 265.18 90.9721 265.483 90.9721 265.922V266.244H92.3301V267.854ZM100.922 266.244V274H98.9483V273.02C98.6963 273.356 98.3649 273.622 97.9543 273.818C97.5529 274.005 97.1143 274.098 96.6383 274.098C96.0316 274.098 95.4949 273.972 95.0283 273.72C94.5616 273.459 94.1929 273.081 93.9223 272.586C93.6609 272.082 93.5303 271.485 93.5303 270.794V266.244H95.4903V270.514C95.4903 271.13 95.6443 271.606 95.9523 271.942C96.2603 272.269 96.6803 272.432 97.2123 272.432C97.7536 272.432 98.1783 272.269 98.4863 271.942C98.7943 271.606 98.9483 271.13 98.9483 270.514V266.244H100.922ZM104.816 263.64V274H102.856V263.64H104.816Z" fill="black"/>
<path d="M37.3708 242.252C37.3708 242.775 37.2448 243.265 36.9928 243.722C36.7501 244.179 36.3628 244.548 35.8308 244.828C35.3081 245.108 34.6455 245.248 33.8428 245.248H32.2048V249H30.2448V239.228H33.8428C34.5988 239.228 35.2428 239.359 35.7748 239.62C36.3068 239.881 36.7035 240.241 36.9648 240.698C37.2355 241.155 37.3708 241.673 37.3708 242.252ZM33.7588 243.666C34.3001 243.666 34.7015 243.545 34.9628 243.302C35.2241 243.05 35.3548 242.7 35.3548 242.252C35.3548 241.3 34.8228 240.824 33.7588 240.824H32.2048V243.666H33.7588ZM38.2584 245.094C38.2584 244.31 38.4124 243.615 38.7204 243.008C39.0377 242.401 39.4624 241.935 39.9944 241.608C40.5357 241.281 41.1377 241.118 41.8004 241.118C42.3791 241.118 42.8831 241.235 43.3124 241.468C43.7511 241.701 44.1011 241.995 44.3624 242.35V241.244H46.3364V249H44.3624V247.866C44.1104 248.23 43.7604 248.533 43.3124 248.776C42.8737 249.009 42.3651 249.126 41.7864 249.126C41.1331 249.126 40.5357 248.958 39.9944 248.622C39.4624 248.286 39.0377 247.815 38.7204 247.208C38.4124 246.592 38.2584 245.887 38.2584 245.094ZM44.3624 245.122C44.3624 244.646 44.2691 244.24 44.0824 243.904C43.8957 243.559 43.6437 243.297 43.3264 243.12C43.0091 242.933 42.6684 242.84 42.3044 242.84C41.9404 242.84 41.6044 242.929 41.2964 243.106C40.9884 243.283 40.7364 243.545 40.5404 243.89C40.3537 244.226 40.2604 244.627 40.2604 245.094C40.2604 245.561 40.3537 245.971 40.5404 246.326C40.7364 246.671 40.9884 246.937 41.2964 247.124C41.6137 247.311 41.9497 247.404 42.3044 247.404C42.6684 247.404 43.0091 247.315 43.3264 247.138C43.6437 246.951 43.8957 246.69 44.0824 246.354C44.2691 246.009 44.3624 245.598 44.3624 245.122ZM55.6707 241.244L50.8687 252.668H48.7827L50.4627 248.804L47.3547 241.244H49.5527L51.5547 246.662L53.5847 241.244H55.6707ZM66.3592 241.132C67.3112 241.132 68.0766 241.426 68.6552 242.014C69.2432 242.593 69.5372 243.405 69.5372 244.45V249H67.5772V244.716C67.5772 244.109 67.4232 243.647 67.1152 243.33C66.8072 243.003 66.3872 242.84 65.8552 242.84C65.3232 242.84 64.8986 243.003 64.5812 243.33C64.2732 243.647 64.1192 244.109 64.1192 244.716V249H62.1592V244.716C62.1592 244.109 62.0052 243.647 61.6972 243.33C61.3892 243.003 60.9692 242.84 60.4372 242.84C59.8959 242.84 59.4666 243.003 59.1492 243.33C58.8412 243.647 58.6872 244.109 58.6872 244.716V249H56.7272V241.244H58.6872V242.182C58.9392 241.855 59.2612 241.599 59.6532 241.412C60.0546 241.225 60.4932 241.132 60.9692 241.132C61.5759 241.132 62.1172 241.263 62.5932 241.524C63.0692 241.776 63.4379 242.14 63.6992 242.616C63.9512 242.168 64.3152 241.809 64.7912 241.538C65.2766 241.267 65.7992 241.132 66.3592 241.132ZM78.6072 244.954C78.6072 245.234 78.5885 245.486 78.5512 245.71H72.8812C72.9278 246.27 73.1238 246.709 73.4692 247.026C73.8145 247.343 74.2392 247.502 74.7432 247.502C75.4712 247.502 75.9892 247.189 76.2972 246.564H78.4112C78.1872 247.311 77.7578 247.927 77.1232 248.412C76.4885 248.888 75.7092 249.126 74.7852 249.126C74.0385 249.126 73.3665 248.963 72.7692 248.636C72.1812 248.3 71.7192 247.829 71.3832 247.222C71.0565 246.615 70.8932 245.915 70.8932 245.122C70.8932 244.319 71.0565 243.615 71.3832 243.008C71.7098 242.401 72.1672 241.935 72.7552 241.608C73.3432 241.281 74.0198 241.118 74.7852 241.118C75.5225 241.118 76.1805 241.277 76.7592 241.594C77.3472 241.911 77.7998 242.364 78.1172 242.952C78.4438 243.531 78.6072 244.198 78.6072 244.954ZM76.5772 244.394C76.5678 243.89 76.3858 243.489 76.0312 243.19C75.6765 242.882 75.2425 242.728 74.7292 242.728C74.2438 242.728 73.8332 242.877 73.4972 243.176C73.1705 243.465 72.9698 243.871 72.8952 244.394H76.5772ZM84.3358 241.132C85.2598 241.132 86.0064 241.426 86.5758 242.014C87.1451 242.593 87.4298 243.405 87.4298 244.45V249H85.4698V244.716C85.4698 244.1 85.3158 243.629 85.0078 243.302C84.6998 242.966 84.2798 242.798 83.7478 242.798C83.2064 242.798 82.7771 242.966 82.4598 243.302C82.1518 243.629 81.9978 244.1 81.9978 244.716V249H80.0378V241.244H81.9978V242.21C82.2591 241.874 82.5904 241.613 82.9918 241.426C83.4024 241.23 83.8504 241.132 84.3358 241.132ZM91.5756 242.854V246.606C91.5756 246.867 91.6363 247.059 91.7576 247.18C91.8883 247.292 92.103 247.348 92.4016 247.348H93.3116V249H92.0796C90.4276 249 89.6016 248.197 89.6016 246.592V242.854H88.6776V241.244H89.6016V239.326H91.5756V241.244H93.3116V242.854H91.5756Z" fill="#717171"/>
<line x1="21" y1="328" x2="294" y2="328" stroke="#1B1E25" stroke-width="2" stroke-dasharray="5 5"/>
</svg>
