<svg width="13" height="13" viewBox="0 0 13 13" fill="none" xmlns="http://www.w3.org/2000/svg">
<path d="M5.53271 0.690968C5.83206 -0.230342 7.13547 -0.230343 7.43482 0.690968L8.27988 3.29178C8.41375 3.7038 8.79771 3.98276 9.23093 3.98276H11.9656C12.9343 3.98276 13.3371 5.22238 12.5534 5.79178L10.341 7.39917C9.9905 7.65381 9.84385 8.10518 9.97772 8.5172L10.8228 11.118C11.1221 12.0393 10.0676 12.8055 9.28393 12.2361L7.07155 10.6287C6.72106 10.374 6.24647 10.374 5.89598 10.6287L3.6836 12.2361C2.89988 12.8055 1.8454 12.0393 2.14475 11.118L2.98981 8.51721C3.12368 8.10518 2.97703 7.65381 2.62654 7.39917L0.414156 5.79178C-0.369558 5.22238 0.033217 3.98276 1.00194 3.98276H3.7366C4.16982 3.98276 4.55378 3.7038 4.68765 3.29178L5.53271 0.690968Z" fill="#E0E0E0"/>
</svg>
